<svg xmlns="http://www.w3.org/2000/svg" xmlns:xlink="http://www.w3.org/1999/xlink" width="1080" zoomAndPan="magnify" viewBox="0 0 810 809.999993" height="1080" preserveAspectRatio="xMidYMid meet" version="1.0"><defs><g/><clipPath id="0c0bcbec8c"><path d="M 170 112 L 630 112 L 630 547 L 170 547 Z M 170 112 " clip-rule="nonzero"/></clipPath><clipPath id="4f5a81ad11"><path d="M 113.402344 175.039062 L 572.320312 47.730469 L 681.988281 443.050781 L 223.070312 570.359375 Z M 113.402344 175.039062 " clip-rule="nonzero"/></clipPath><clipPath id="e54a774b1c"><path d="M 113.402344 175.039062 L 572.320312 47.730469 L 681.988281 443.050781 L 223.070312 570.359375 Z M 113.402344 175.039062 " clip-rule="nonzero"/></clipPath></defs><g clip-path="url(#0c0bcbec8c)"><g clip-path="url(#4f5a81ad11)"><g clip-path="url(#e54a774b1c)"><path fill="#0b5345" d="M 343.078125 112.15625 L 170.835938 382.074219 L 233.417969 364.714844 L 233.4375 364.796875 L 358.632812 168.230469 L 514.992188 245.976562 L 565.914062 429.535156 L 482.472656 452.683594 L 465.132812 390.179688 L 520.015625 374.957031 L 334.632812 284.179688 L 222.515625 457.484375 L 277.394531 442.261719 L 306.292969 546.429688 L 473.171875 500.136719 L 494.03125 494.351562 L 619.191406 459.628906 L 567.175781 272.125 L 629.753906 254.765625 Z M 343.078125 112.15625 " fill-opacity="1" fill-rule="nonzero"/></g></g></g><g fill="#ddac4a" fill-opacity="1"><g transform="translate(87.827343, 643.158156)"><g><path d="M 4.71875 0 L 4.71875 -52.5 L 15.59375 -52.5 L 15.59375 0 Z M 4.71875 0 "/></g></g></g><g fill="#ddac4a" fill-opacity="1"><g transform="translate(116.327327, 643.158156)"><g><path d="M 4.71875 -52.5 L 15.078125 -52.5 L 41.171875 -18.53125 L 41.171875 -52.5 L 51.375 -52.5 L 51.375 0 L 41.78125 0 L 15 -35.09375 L 15 0 L 4.71875 0 Z M 4.71875 -52.5 "/></g></g></g><g fill="#ddac4a" fill-opacity="1"><g transform="translate(180.602276, 643.158156)"><g><path d="M 4.71875 0 L 4.71875 -52.5 L 24.90625 -52.5 C 28.800781 -52.5 32.445312 -51.820312 35.84375 -50.46875 C 39.25 -49.125 42.1875 -47.273438 44.65625 -44.921875 C 47.132812 -42.578125 49.085938 -39.78125 50.515625 -36.53125 C 51.941406 -33.28125 52.65625 -29.800781 52.65625 -26.09375 C 52.65625 -22.445312 51.941406 -19.023438 50.515625 -15.828125 C 49.085938 -12.628906 47.132812 -9.863281 44.65625 -7.53125 C 42.1875 -5.207031 39.25 -3.367188 35.84375 -2.015625 C 32.445312 -0.671875 28.800781 0 24.90625 0 Z M 24.828125 -42.828125 L 15.59375 -42.828125 L 15.59375 -9.671875 L 24.828125 -9.671875 C 27.128906 -9.671875 29.289062 -10.09375 31.3125 -10.9375 C 33.332031 -11.789062 35.09375 -12.957031 36.59375 -14.4375 C 38.09375 -15.914062 39.269531 -17.65625 40.125 -19.65625 C 40.976562 -21.65625 41.40625 -23.800781 41.40625 -26.09375 C 41.40625 -28.445312 40.976562 -30.648438 40.125 -32.703125 C 39.269531 -34.753906 38.09375 -36.53125 36.59375 -38.03125 C 35.09375 -39.53125 33.332031 -40.703125 31.3125 -41.546875 C 29.289062 -42.398438 27.128906 -42.828125 24.828125 -42.828125 Z M 24.828125 -42.828125 "/></g></g></g><g fill="#ddac4a" fill-opacity="1"><g transform="translate(244.05222, 643.158156)"><g><path d="M 4.71875 0 L 4.71875 -52.5 L 15.59375 -52.5 L 15.59375 0 Z M 4.71875 0 "/></g></g></g><g fill="#ddac4a" fill-opacity="1"><g transform="translate(272.552208, 643.158156)"><g><path d="M -0.296875 0 L 21.296875 -52.5 L 33.90625 -52.5 L 55.203125 0 L 43.421875 0 L 38.09375 -13.796875 L 16.421875 -13.796875 L 11.03125 0 Z M 19.796875 -22.5 L 34.796875 -22.5 L 27.375 -41.84375 Z M 19.796875 -22.5 "/></g></g></g><g fill="#ddac4a" fill-opacity="1"><g transform="translate(335.552159, 643.158156)"><g><path d="M 4.71875 -52.5 L 15.078125 -52.5 L 41.171875 -18.53125 L 41.171875 -52.5 L 51.375 -52.5 L 51.375 0 L 41.78125 0 L 15 -35.09375 L 15 0 L 4.71875 0 Z M 4.71875 -52.5 "/></g></g></g><g fill="#ddac4a" fill-opacity="1"><g transform="translate(399.827096, 643.158156)"><g><path d="M -0.296875 0 L 21.296875 -52.5 L 33.90625 -52.5 L 55.203125 0 L 43.421875 0 L 38.09375 -13.796875 L 16.421875 -13.796875 L 11.03125 0 Z M 19.796875 -22.5 L 34.796875 -22.5 L 27.375 -41.84375 Z M 19.796875 -22.5 "/></g></g></g><g fill="#ddac4a" fill-opacity="1"><g transform="translate(462.827047, 643.158156)"><g><path d="M 4.71875 0 L 4.71875 -52.5 L 31.046875 -52.5 C 33.597656 -52.5 35.960938 -52.085938 38.140625 -51.265625 C 40.316406 -50.441406 42.175781 -49.300781 43.71875 -47.84375 C 45.269531 -46.394531 46.484375 -44.65625 47.359375 -42.625 C 48.234375 -40.601562 48.671875 -38.394531 48.671875 -36 C 48.671875 -33.644531 48.234375 -31.476562 47.359375 -29.5 C 46.484375 -27.53125 45.257812 -25.820312 43.6875 -24.375 C 42.113281 -22.925781 40.25 -21.800781 38.09375 -21 C 35.945312 -20.195312 33.597656 -19.796875 31.046875 -19.796875 L 15.59375 -19.796875 L 15.59375 0 Z M 29.84375 -43.125 L 15.59375 -43.125 L 15.59375 -28.796875 L 29.84375 -28.796875 C 32.195312 -28.796875 34.085938 -29.445312 35.515625 -30.75 C 36.941406 -32.050781 37.65625 -33.773438 37.65625 -35.921875 C 37.65625 -38.078125 36.941406 -39.816406 35.515625 -41.140625 C 34.085938 -42.460938 32.195312 -43.125 29.84375 -43.125 Z M 29.84375 -43.125 "/></g></g></g><g fill="#ddac4a" fill-opacity="1"><g transform="translate(522.001971, 643.158156)"><g><path d="M 58.28125 -26.25 C 58.28125 -22.5 57.550781 -18.960938 56.09375 -15.640625 C 54.644531 -12.316406 52.679688 -9.441406 50.203125 -7.015625 C 47.734375 -4.585938 44.796875 -2.671875 41.390625 -1.265625 C 37.992188 0.128906 34.347656 0.828125 30.453125 0.828125 C 26.597656 0.828125 22.96875 0.128906 19.5625 -1.265625 C 16.164062 -2.671875 13.226562 -4.585938 10.75 -7.015625 C 8.28125 -9.441406 6.320312 -12.316406 4.875 -15.640625 C 3.425781 -18.960938 2.703125 -22.5 2.703125 -26.25 C 2.703125 -30 3.425781 -33.535156 4.875 -36.859375 C 6.320312 -40.179688 8.28125 -43.054688 10.75 -45.484375 C 13.226562 -47.910156 16.164062 -49.820312 19.5625 -51.21875 C 22.96875 -52.625 26.597656 -53.328125 30.453125 -53.328125 C 34.347656 -53.328125 37.992188 -52.625 41.390625 -51.21875 C 44.796875 -49.820312 47.734375 -47.910156 50.203125 -45.484375 C 52.679688 -43.054688 54.644531 -40.179688 56.09375 -36.859375 C 57.550781 -33.535156 58.28125 -30 58.28125 -26.25 Z M 47.09375 -26.25 C 47.09375 -28.695312 46.664062 -30.957031 45.8125 -33.03125 C 44.96875 -35.113281 43.804688 -36.914062 42.328125 -38.4375 C 40.859375 -39.957031 39.097656 -41.15625 37.046875 -42.03125 C 34.992188 -42.90625 32.796875 -43.34375 30.453125 -43.34375 C 28.097656 -43.34375 25.90625 -42.90625 23.875 -42.03125 C 21.851562 -41.15625 20.101562 -39.957031 18.625 -38.4375 C 17.15625 -36.914062 15.992188 -35.113281 15.140625 -33.03125 C 14.296875 -30.957031 13.875 -28.695312 13.875 -26.25 C 13.875 -23.851562 14.296875 -21.601562 15.140625 -19.5 C 15.992188 -17.394531 17.15625 -15.582031 18.625 -14.0625 C 20.101562 -12.539062 21.851562 -11.34375 23.875 -10.46875 C 25.90625 -9.59375 28.097656 -9.15625 30.453125 -9.15625 C 32.796875 -9.15625 34.992188 -9.59375 37.046875 -10.46875 C 39.097656 -11.34375 40.859375 -12.539062 42.328125 -14.0625 C 43.804688 -15.582031 44.96875 -17.394531 45.8125 -19.5 C 46.664062 -21.601562 47.09375 -23.851562 47.09375 -26.25 Z M 47.09375 -26.25 "/></g></g></g><g fill="#ddac4a" fill-opacity="1"><g transform="translate(591.076904, 643.158156)"><g><path d="M 4.71875 0 L 4.71875 -52.5 L 15.59375 -52.5 L 15.59375 -9.59375 L 44.328125 -9.59375 L 44.328125 0 Z M 4.71875 0 "/></g></g></g><g fill="#ddac4a" fill-opacity="1"><g transform="translate(646.276837, 643.158156)"><g><path d="M 4.71875 0 L 4.71875 -52.5 L 15.59375 -52.5 L 15.59375 0 Z M 4.71875 0 "/></g></g></g><g fill="#ddac4a" fill-opacity="1"><g transform="translate(674.776836, 643.158156)"><g><path d="M 0.21875 -8.328125 L 6.453125 -16.125 C 9.503906 -13.476562 12.441406 -11.539062 15.265625 -10.3125 C 18.085938 -9.082031 21.070312 -8.46875 24.21875 -8.46875 C 27.46875 -8.46875 30.066406 -9.066406 32.015625 -10.265625 C 33.972656 -11.472656 34.953125 -13.078125 34.953125 -15.078125 C 34.953125 -16.878906 34.285156 -18.28125 32.953125 -19.28125 C 31.628906 -20.28125 29.421875 -21.03125 26.328125 -21.53125 L 15.90625 -23.328125 C 11.40625 -24.078125 7.988281 -25.648438 5.65625 -28.046875 C 3.332031 -30.453125 2.171875 -33.550781 2.171875 -37.34375 C 2.171875 -42.25 4.03125 -46.125 7.75 -48.96875 C 11.476562 -51.820312 16.519531 -53.25 22.875 -53.25 C 26.675781 -53.25 30.515625 -52.597656 34.390625 -51.296875 C 38.265625 -49.992188 41.648438 -48.195312 44.546875 -45.90625 L 38.703125 -37.796875 C 35.898438 -39.953125 33.148438 -41.539062 30.453125 -42.5625 C 27.753906 -43.582031 24.976562 -44.09375 22.125 -44.09375 C 19.226562 -44.09375 16.90625 -43.554688 15.15625 -42.484375 C 13.40625 -41.410156 12.53125 -39.972656 12.53125 -38.171875 C 12.53125 -36.578125 13.101562 -35.328125 14.25 -34.421875 C 15.394531 -33.523438 17.320312 -32.875 20.03125 -32.46875 L 29.921875 -30.828125 C 35.117188 -29.972656 39.03125 -28.304688 41.65625 -25.828125 C 44.28125 -23.359375 45.59375 -20.097656 45.59375 -16.046875 C 45.59375 -10.953125 43.582031 -6.878906 39.5625 -3.828125 C 35.539062 -0.773438 30.175781 0.75 23.46875 0.75 C 19.269531 0.75 15.132812 -0.046875 11.0625 -1.640625 C 6.988281 -3.242188 3.375 -5.472656 0.21875 -8.328125 Z M 0.21875 -8.328125 "/></g></g></g><g fill="#0b5345" fill-opacity="1"><g transform="translate(201.470897, 698.658201)"><g><path d="M 2.515625 0 L 2.515625 -28 L 16.203125 -28 C 17.609375 -28 18.90625 -27.785156 20.09375 -27.359375 C 21.28125 -26.929688 22.300781 -26.335938 23.15625 -25.578125 C 24.007812 -24.816406 24.675781 -23.898438 25.15625 -22.828125 C 25.632812 -21.765625 25.875 -20.59375 25.875 -19.3125 C 25.875 -17.5625 25.375 -15.988281 24.375 -14.59375 C 23.375 -13.207031 22.050781 -12.179688 20.40625 -11.515625 L 26.59375 0 L 20.125 0 L 14.640625 -10.71875 L 8.3125 -10.71875 L 8.3125 0 Z M 15.6875 -23 L 8.3125 -23 L 8.3125 -15.484375 L 15.6875 -15.484375 C 16.988281 -15.484375 18.03125 -15.828125 18.8125 -16.515625 C 19.601562 -17.210938 20 -18.117188 20 -19.234375 C 20 -20.359375 19.601562 -21.265625 18.8125 -21.953125 C 18.03125 -22.648438 16.988281 -23 15.6875 -23 Z M 15.6875 -23 "/></g></g></g><g fill="#0b5345" fill-opacity="1"><g transform="translate(232.948191, 698.658201)"><g><path d="M 2.515625 0 L 2.515625 -28 L 24.046875 -28 L 24.046875 -22.953125 L 8.3125 -22.953125 L 8.3125 -16.5625 L 18.6875 -16.5625 L 18.6875 -11.6875 L 8.3125 -11.6875 L 8.3125 -5.046875 L 24.203125 -5.046875 L 24.203125 0 Z M 2.515625 0 "/></g></g></g><g fill="#0b5345" fill-opacity="1"><g transform="translate(263.065629, 698.658201)"><g><path d="M -0.15625 0 L 11.359375 -28 L 18.078125 -28 L 29.4375 0 L 23.15625 0 L 20.3125 -7.359375 L 8.765625 -7.359375 L 5.875 0 Z M 10.5625 -12 L 18.5625 -12 L 14.59375 -22.3125 Z M 10.5625 -12 "/></g></g></g><g fill="#0b5345" fill-opacity="1"><g transform="translate(296.662711, 698.658201)"><g><path d="M 2.515625 0 L 2.515625 -28 L 8.3125 -28 L 8.3125 -5.125 L 23.640625 -5.125 L 23.640625 0 Z M 2.515625 0 "/></g></g></g><g fill="#0b5345" fill-opacity="1"><g transform="translate(326.10021, 698.658201)"><g/></g></g><g fill="#0b5345" fill-opacity="1"><g transform="translate(338.459405, 698.658201)"><g><path d="M 2.515625 0 L 2.515625 -28 L 24.046875 -28 L 24.046875 -22.953125 L 8.3125 -22.953125 L 8.3125 -16.5625 L 18.6875 -16.5625 L 18.6875 -11.6875 L 8.3125 -11.6875 L 8.3125 -5.046875 L 24.203125 -5.046875 L 24.203125 0 Z M 2.515625 0 "/></g></g></g><g fill="#0b5345" fill-opacity="1"><g transform="translate(368.576843, 698.658201)"><g><path d="M 0.125 -4.4375 L 3.4375 -8.59375 C 5.0625 -7.1875 6.628906 -6.15625 8.140625 -5.5 C 9.648438 -4.84375 11.242188 -4.515625 12.921875 -4.515625 C 14.648438 -4.515625 16.035156 -4.832031 17.078125 -5.46875 C 18.117188 -6.113281 18.640625 -6.972656 18.640625 -8.046875 C 18.640625 -9.003906 18.285156 -9.75 17.578125 -10.28125 C 16.867188 -10.8125 15.691406 -11.210938 14.046875 -11.484375 L 8.484375 -12.4375 C 6.078125 -12.84375 4.253906 -13.679688 3.015625 -14.953125 C 1.773438 -16.234375 1.15625 -17.890625 1.15625 -19.921875 C 1.15625 -22.535156 2.148438 -24.601562 4.140625 -26.125 C 6.128906 -27.644531 8.816406 -28.40625 12.203125 -28.40625 C 14.222656 -28.40625 16.265625 -28.054688 18.328125 -27.359375 C 20.398438 -26.660156 22.210938 -25.703125 23.765625 -24.484375 L 20.640625 -20.15625 C 19.148438 -21.300781 17.679688 -22.144531 16.234375 -22.6875 C 14.796875 -23.238281 13.316406 -23.515625 11.796875 -23.515625 C 10.253906 -23.515625 9.015625 -23.226562 8.078125 -22.65625 C 7.148438 -22.082031 6.6875 -21.316406 6.6875 -20.359375 C 6.6875 -19.503906 6.988281 -18.835938 7.59375 -18.359375 C 8.207031 -17.878906 9.238281 -17.53125 10.6875 -17.3125 L 15.953125 -16.4375 C 18.734375 -15.988281 20.820312 -15.101562 22.21875 -13.78125 C 23.613281 -12.457031 24.3125 -10.71875 24.3125 -8.5625 C 24.3125 -5.84375 23.238281 -3.664062 21.09375 -2.03125 C 18.945312 -0.40625 16.085938 0.40625 12.515625 0.40625 C 10.273438 0.40625 8.066406 -0.0195312 5.890625 -0.875 C 3.722656 -1.726562 1.800781 -2.914062 0.125 -4.4375 Z M 0.125 -4.4375 "/></g></g></g><g fill="#0b5345" fill-opacity="1"><g transform="translate(398.174318, 698.658201)"><g><path d="M 0.71875 -22.875 L 0.71875 -28 L 25.359375 -28 L 25.359375 -22.875 L 15.953125 -22.875 L 15.953125 0 L 10.15625 0 L 10.15625 -22.875 Z M 0.71875 -22.875 "/></g></g></g><g fill="#0b5345" fill-opacity="1"><g transform="translate(428.571725, 698.658201)"><g><path d="M -0.15625 0 L 11.359375 -28 L 18.078125 -28 L 29.4375 0 L 23.15625 0 L 20.3125 -7.359375 L 8.765625 -7.359375 L 5.875 0 Z M 10.5625 -12 L 18.5625 -12 L 14.59375 -22.3125 Z M 10.5625 -12 "/></g></g></g><g fill="#0b5345" fill-opacity="1"><g transform="translate(462.168807, 698.658201)"><g><path d="M 0.71875 -22.875 L 0.71875 -28 L 25.359375 -28 L 25.359375 -22.875 L 15.953125 -22.875 L 15.953125 0 L 10.15625 0 L 10.15625 -22.875 Z M 0.71875 -22.875 "/></g></g></g><g fill="#0b5345" fill-opacity="1"><g transform="translate(492.566213, 698.658201)"><g><path d="M 2.515625 0 L 2.515625 -28 L 24.046875 -28 L 24.046875 -22.953125 L 8.3125 -22.953125 L 8.3125 -16.5625 L 18.6875 -16.5625 L 18.6875 -11.6875 L 8.3125 -11.6875 L 8.3125 -5.046875 L 24.203125 -5.046875 L 24.203125 0 Z M 2.515625 0 "/></g></g></g><g fill="#0b5345" fill-opacity="1"><g transform="translate(522.683651, 698.658201)"><g/></g></g><g fill="#0b5345" fill-opacity="1"><g transform="translate(535.042858, 698.658201)"><g><path d="M 2.515625 0 L 2.515625 -28 L 8.3125 -28 L 8.3125 -15.4375 L 20.5625 -28 L 27.640625 -28 L 14.125 -14.6875 L 28.28125 0 L 20.515625 0 L 8.3125 -13.125 L 8.3125 0 Z M 2.515625 0 "/></g></g></g><g fill="#0b5345" fill-opacity="1"><g transform="translate(567.240076, 698.658201)"><g><path d="M 2.515625 0 L 2.515625 -28 L 8.3125 -28 L 8.3125 0 Z M 2.515625 0 "/></g></g></g><g fill="#0b5345" fill-opacity="1"><g transform="translate(582.438996, 698.658201)"><g><path d="M 0.71875 -22.875 L 0.71875 -28 L 25.359375 -28 L 25.359375 -22.875 L 15.953125 -22.875 L 15.953125 0 L 10.15625 0 L 10.15625 -22.875 Z M 0.71875 -22.875 "/></g></g></g></svg>